M48
;Layer_Color=9474304
;FILE_FORMAT=2:5
INCH,LZ
;TYPE=PLATED
T1F00S00C0.00787
T2F00S00C0.03150
T3F00S00C0.03937
;TYPE=NON_PLATED
T4F00S00C0.07874
%
T01
X0005906Y0014175
X0005906Y0046457
X0031496Y0060236
X0048032
Y0043307
X0050886Y0029923
X0051181Y0014173
X0079921Y002323
X0081496Y0033858
Y0045669
Y005748
Y0069291
X0095276
X0106102Y0067128
X0106693Y0032677
X0103248Y0029923
X0094488Y0027559
X0084646Y0007874
X014252Y0033858
X0144487Y0043505
X0155207Y0043309
X015748Y0046063
Y0055512
X0154331Y0060238
X0157968Y0063191
Y0069096
X013848Y0068309
Y0063978
X0134149
Y0068309
X0185039Y0068506
X0194882
X0201575Y0070866
X0190945Y0057482
X0181496
Y0045277
X0190945
Y0034253
X0181496
Y0022836
X0190945
X0220473Y0008269
X0245669Y0040945
Y0045276
Y0049606
X0155118Y0033858
X0288976Y0030316
X0248819Y0089764
X0254725Y0100887
Y0115359
X0250787
X0242914
X0238976
X0231102
X0227165
X0223228
X0219291
X0219291Y010197
X0205512Y0102758
X0207091Y0106102
Y0110039
Y0113976
Y0117913
X0199606Y0107482
Y0102758
X019222Y0109843
Y0095479
X0179921Y0095277
Y0101183
X018189Y0115356
X0185728Y007884
X0190256Y0075984
X0198031Y0076773
Y0082679
X0205512Y0074803
X0209449Y007874
X0161811Y0078545
X0153543Y0071557
X0144488Y0095669
X01497Y0102265
X0103543Y0102756
X0101181Y0105907
X0097732Y0108269
X0093307Y0113387
X0085827Y0109449
X0081496Y0104724
Y0092913
Y0081102
X0095276Y0095276
X0084646Y0124409
X0045276
X0039762Y0084057
Y0077758
X0052361
Y0084057
X0027559Y0085433
Y0082384
Y0079431
Y0075295
X0022047Y0074114
T02
X0093007Y0011025
X0100881
X0108755
X0116629
X0124503
X0132377
X0140251
X0148125
X0155999
X0163873
X0171747
X0179621
Y0121261
X0171747
X0163873
X0155999
X0148125
X0140251
X0132377
X0124503
X0116629
X0108755
X0100881
X0093007
T03
X0204725Y0038976
Y0051181
X0286614
Y0038976
T04
X0285433Y0122047
X0007874Y0122047
M30
