G04*
G04 #@! TF.GenerationSoftware,Altium Limited,Altium Designer,20.0.13 (296)*
G04*
G04 Layer_Physical_Order=1*
G04 Layer_Color=255*
%FSLAX25Y25*%
%MOIN*%
G70*
G01*
G75*
%ADD10C,0.01181*%
G04:AMPARAMS|DCode=18|XSize=11.81mil|YSize=19.68mil|CornerRadius=1.18mil|HoleSize=0mil|Usage=FLASHONLY|Rotation=90.000|XOffset=0mil|YOffset=0mil|HoleType=Round|Shape=RoundedRectangle|*
%AMROUNDEDRECTD18*
21,1,0.01181,0.01732,0,0,90.0*
21,1,0.00945,0.01968,0,0,90.0*
1,1,0.00236,0.00866,0.00472*
1,1,0.00236,0.00866,-0.00472*
1,1,0.00236,-0.00866,-0.00472*
1,1,0.00236,-0.00866,0.00472*
%
%ADD18ROUNDEDRECTD18*%
%ADD19R,0.01968X0.01181*%
G04:AMPARAMS|DCode=20|XSize=9.06mil|YSize=27.56mil|CornerRadius=0.91mil|HoleSize=0mil|Usage=FLASHONLY|Rotation=90.000|XOffset=0mil|YOffset=0mil|HoleType=Round|Shape=RoundedRectangle|*
%AMROUNDEDRECTD20*
21,1,0.00906,0.02575,0,0,90.0*
21,1,0.00724,0.02756,0,0,90.0*
1,1,0.00181,0.01287,0.00362*
1,1,0.00181,0.01287,-0.00362*
1,1,0.00181,-0.01287,-0.00362*
1,1,0.00181,-0.01287,0.00362*
%
%ADD20ROUNDEDRECTD20*%
G04:AMPARAMS|DCode=21|XSize=9.06mil|YSize=27.56mil|CornerRadius=0.91mil|HoleSize=0mil|Usage=FLASHONLY|Rotation=180.000|XOffset=0mil|YOffset=0mil|HoleType=Round|Shape=RoundedRectangle|*
%AMROUNDEDRECTD21*
21,1,0.00906,0.02575,0,0,180.0*
21,1,0.00724,0.02756,0,0,180.0*
1,1,0.00181,-0.00362,0.01287*
1,1,0.00181,0.00362,0.01287*
1,1,0.00181,0.00362,-0.01287*
1,1,0.00181,-0.00362,-0.01287*
%
%ADD21ROUNDEDRECTD21*%
G04:AMPARAMS|DCode=22|XSize=9.06mil|YSize=27.56mil|CornerRadius=2.26mil|HoleSize=0mil|Usage=FLASHONLY|Rotation=180.000|XOffset=0mil|YOffset=0mil|HoleType=Round|Shape=RoundedRectangle|*
%AMROUNDEDRECTD22*
21,1,0.00906,0.02303,0,0,180.0*
21,1,0.00453,0.02756,0,0,180.0*
1,1,0.00453,-0.00226,0.01152*
1,1,0.00453,0.00226,0.01152*
1,1,0.00453,0.00226,-0.01152*
1,1,0.00453,-0.00226,-0.01152*
%
%ADD22ROUNDEDRECTD22*%
%ADD23R,0.08661X0.03937*%
G04:AMPARAMS|DCode=25|XSize=21.65mil|YSize=19.68mil|CornerRadius=1.97mil|HoleSize=0mil|Usage=FLASHONLY|Rotation=90.000|XOffset=0mil|YOffset=0mil|HoleType=Round|Shape=RoundedRectangle|*
%AMROUNDEDRECTD25*
21,1,0.02165,0.01575,0,0,90.0*
21,1,0.01772,0.01968,0,0,90.0*
1,1,0.00394,0.00787,0.00886*
1,1,0.00394,0.00787,-0.00886*
1,1,0.00394,-0.00787,-0.00886*
1,1,0.00394,-0.00787,0.00886*
%
%ADD25ROUNDEDRECTD25*%
G04:AMPARAMS|DCode=26|XSize=55.12mil|YSize=47.24mil|CornerRadius=4.72mil|HoleSize=0mil|Usage=FLASHONLY|Rotation=90.000|XOffset=0mil|YOffset=0mil|HoleType=Round|Shape=RoundedRectangle|*
%AMROUNDEDRECTD26*
21,1,0.05512,0.03780,0,0,90.0*
21,1,0.04567,0.04724,0,0,90.0*
1,1,0.00945,0.01890,0.02284*
1,1,0.00945,0.01890,-0.02284*
1,1,0.00945,-0.01890,-0.02284*
1,1,0.00945,-0.01890,0.02284*
%
%ADD26ROUNDEDRECTD26*%
G04:AMPARAMS|DCode=27|XSize=25.2mil|YSize=23.62mil|CornerRadius=2.36mil|HoleSize=0mil|Usage=FLASHONLY|Rotation=270.000|XOffset=0mil|YOffset=0mil|HoleType=Round|Shape=RoundedRectangle|*
%AMROUNDEDRECTD27*
21,1,0.02520,0.01890,0,0,270.0*
21,1,0.02047,0.02362,0,0,270.0*
1,1,0.00472,-0.00945,-0.01024*
1,1,0.00472,-0.00945,0.01024*
1,1,0.00472,0.00945,0.01024*
1,1,0.00472,0.00945,-0.01024*
%
%ADD27ROUNDEDRECTD27*%
G04:AMPARAMS|DCode=28|XSize=25.2mil|YSize=23.62mil|CornerRadius=2.36mil|HoleSize=0mil|Usage=FLASHONLY|Rotation=0.000|XOffset=0mil|YOffset=0mil|HoleType=Round|Shape=RoundedRectangle|*
%AMROUNDEDRECTD28*
21,1,0.02520,0.01890,0,0,0.0*
21,1,0.02047,0.02362,0,0,0.0*
1,1,0.00472,0.01024,-0.00945*
1,1,0.00472,-0.01024,-0.00945*
1,1,0.00472,-0.01024,0.00945*
1,1,0.00472,0.01024,0.00945*
%
%ADD28ROUNDEDRECTD28*%
G04:AMPARAMS|DCode=29|XSize=37.4mil|YSize=39.37mil|CornerRadius=3.74mil|HoleSize=0mil|Usage=FLASHONLY|Rotation=270.000|XOffset=0mil|YOffset=0mil|HoleType=Round|Shape=RoundedRectangle|*
%AMROUNDEDRECTD29*
21,1,0.03740,0.03189,0,0,270.0*
21,1,0.02992,0.03937,0,0,270.0*
1,1,0.00748,-0.01595,-0.01496*
1,1,0.00748,-0.01595,0.01496*
1,1,0.00748,0.01595,0.01496*
1,1,0.00748,0.01595,-0.01496*
%
%ADD29ROUNDEDRECTD29*%
%ADD31C,0.00787*%
G04:AMPARAMS|DCode=52|XSize=23.62mil|YSize=31.5mil|CornerRadius=2.36mil|HoleSize=0mil|Usage=FLASHONLY|Rotation=270.000|XOffset=0mil|YOffset=0mil|HoleType=Round|Shape=RoundedRectangle|*
%AMROUNDEDRECTD52*
21,1,0.02362,0.02677,0,0,270.0*
21,1,0.01890,0.03150,0,0,270.0*
1,1,0.00472,-0.01339,-0.00945*
1,1,0.00472,-0.01339,0.00945*
1,1,0.00472,0.01339,0.00945*
1,1,0.00472,0.01339,-0.00945*
%
%ADD52ROUNDEDRECTD52*%
G04:AMPARAMS|DCode=53|XSize=23.62mil|YSize=31.5mil|CornerRadius=2.36mil|HoleSize=0mil|Usage=FLASHONLY|Rotation=0.000|XOffset=0mil|YOffset=0mil|HoleType=Round|Shape=RoundedRectangle|*
%AMROUNDEDRECTD53*
21,1,0.02362,0.02677,0,0,0.0*
21,1,0.01890,0.03150,0,0,0.0*
1,1,0.00472,0.00945,-0.01339*
1,1,0.00472,-0.00945,-0.01339*
1,1,0.00472,-0.00945,0.01339*
1,1,0.00472,0.00945,0.01339*
%
%ADD53ROUNDEDRECTD53*%
G04:AMPARAMS|DCode=54|XSize=23.62mil|YSize=31.5mil|CornerRadius=5.91mil|HoleSize=0mil|Usage=FLASHONLY|Rotation=0.000|XOffset=0mil|YOffset=0mil|HoleType=Round|Shape=RoundedRectangle|*
%AMROUNDEDRECTD54*
21,1,0.02362,0.01968,0,0,0.0*
21,1,0.01181,0.03150,0,0,0.0*
1,1,0.01181,0.00591,-0.00984*
1,1,0.01181,-0.00591,-0.00984*
1,1,0.01181,-0.00591,0.00984*
1,1,0.01181,0.00591,0.00984*
%
%ADD54ROUNDEDRECTD54*%
%ADD55C,0.70079*%
%ADD56R,0.20276X0.20276*%
%ADD57R,0.07480X0.04331*%
%ADD58C,0.00591*%
%ADD59C,0.01968*%
G04:AMPARAMS|DCode=60|XSize=55.12mil|YSize=55.12mil|CornerRadius=13.78mil|HoleSize=0mil|Usage=FLASHONLY|Rotation=180.000|XOffset=0mil|YOffset=0mil|HoleType=Round|Shape=RoundedRectangle|*
%AMROUNDEDRECTD60*
21,1,0.05512,0.02756,0,0,180.0*
21,1,0.02756,0.05512,0,0,180.0*
1,1,0.02756,-0.01378,0.01378*
1,1,0.02756,0.01378,0.01378*
1,1,0.02756,0.01378,-0.01378*
1,1,0.02756,-0.01378,-0.01378*
%
%ADD60ROUNDEDRECTD60*%
%ADD61C,0.05512*%
%ADD62C,0.02362*%
G36*
X256693Y122234D02*
X256345Y122002D01*
X255997Y121481D01*
X255990Y121447D01*
X255406Y121072D01*
X255315Y121090D01*
X255020D01*
Y118701D01*
Y116312D01*
X255315D01*
X255375Y116323D01*
X255875Y115913D01*
Y99992D01*
X255669Y99823D01*
X255020D01*
Y97441D01*
Y95059D01*
X255669D01*
X255854Y95095D01*
X255875Y95079D01*
X255997Y94464D01*
X256345Y93943D01*
X256693Y93711D01*
Y86221D01*
X286176Y56738D01*
X286015Y56265D01*
X285278Y56168D01*
X284033Y55652D01*
X282964Y54831D01*
X282144Y53762D01*
X281628Y52517D01*
X281452Y51181D01*
X281628Y49845D01*
X282144Y48600D01*
X282964Y47531D01*
X284033Y46710D01*
X285278Y46195D01*
X286614Y46019D01*
X287950Y46195D01*
X289195Y46710D01*
X290265Y47531D01*
X291085Y48600D01*
X291201Y48882D01*
X291702Y48782D01*
Y41375D01*
X291201Y41276D01*
X291085Y41557D01*
X290265Y42627D01*
X289195Y43447D01*
X287950Y43963D01*
X286614Y44139D01*
X285278Y43963D01*
X284033Y43447D01*
X282964Y42627D01*
X282144Y41557D01*
X281628Y40312D01*
X281452Y38976D01*
X281628Y37640D01*
X282144Y36395D01*
X282964Y35326D01*
X284033Y34506D01*
X285278Y33990D01*
X286614Y33814D01*
X287950Y33990D01*
X289195Y34506D01*
X290265Y35326D01*
X291085Y36395D01*
X291201Y36677D01*
X291702Y36577D01*
Y1606D01*
X1606D01*
Y128347D01*
X256693Y128347D01*
Y122234D01*
D02*
G37*
%LPC*%
G36*
X179621Y125232D02*
X178594Y125097D01*
X177636Y124700D01*
X176813Y124069D01*
X176182Y123247D01*
X175955Y122698D01*
X175414D01*
X175186Y123247D01*
X174555Y124069D01*
X173733Y124700D01*
X172775Y125097D01*
X171747Y125232D01*
X170720Y125097D01*
X169762Y124700D01*
X168939Y124069D01*
X168308Y123247D01*
X168081Y122698D01*
X167540D01*
X167312Y123247D01*
X166681Y124069D01*
X165859Y124700D01*
X164901Y125097D01*
X163873Y125232D01*
X162846Y125097D01*
X161888Y124700D01*
X161065Y124069D01*
X160434Y123247D01*
X160207Y122698D01*
X159666D01*
X159438Y123247D01*
X158807Y124069D01*
X157985Y124700D01*
X157027Y125097D01*
X155999Y125232D01*
X154972Y125097D01*
X154014Y124700D01*
X153191Y124069D01*
X152560Y123247D01*
X152333Y122698D01*
X151792D01*
X151564Y123247D01*
X150933Y124069D01*
X150111Y124700D01*
X149153Y125097D01*
X148125Y125232D01*
X147098Y125097D01*
X146140Y124700D01*
X145317Y124069D01*
X144686Y123247D01*
X144459Y122698D01*
X143918D01*
X143690Y123247D01*
X143059Y124069D01*
X142237Y124700D01*
X141279Y125097D01*
X140251Y125232D01*
X139224Y125097D01*
X138266Y124700D01*
X137443Y124069D01*
X136812Y123247D01*
X136585Y122698D01*
X136044D01*
X135816Y123247D01*
X135185Y124069D01*
X134363Y124700D01*
X133405Y125097D01*
X132377Y125232D01*
X131350Y125097D01*
X130392Y124700D01*
X129569Y124069D01*
X128938Y123247D01*
X128711Y122698D01*
X128170D01*
X127942Y123247D01*
X127311Y124069D01*
X126489Y124700D01*
X125531Y125097D01*
X124503Y125232D01*
X123476Y125097D01*
X122518Y124700D01*
X121695Y124069D01*
X121064Y123247D01*
X120837Y122698D01*
X120296D01*
X120068Y123247D01*
X119437Y124069D01*
X118615Y124700D01*
X117657Y125097D01*
X116629Y125232D01*
X115601Y125097D01*
X114644Y124700D01*
X113821Y124069D01*
X113190Y123247D01*
X112963Y122698D01*
X112422D01*
X112194Y123247D01*
X111563Y124069D01*
X110741Y124700D01*
X109783Y125097D01*
X108755Y125232D01*
X107727Y125097D01*
X106770Y124700D01*
X105947Y124069D01*
X105316Y123247D01*
X105089Y122698D01*
X104548D01*
X104320Y123247D01*
X103689Y124069D01*
X102867Y124700D01*
X101909Y125097D01*
X100881Y125232D01*
X99853Y125097D01*
X98896Y124700D01*
X98073Y124069D01*
X97442Y123247D01*
X97215Y122698D01*
X96674D01*
X96446Y123247D01*
X95815Y124069D01*
X94993Y124700D01*
X94035Y125097D01*
X93007Y125232D01*
X91979Y125097D01*
X91022Y124700D01*
X90199Y124069D01*
X89568Y123247D01*
X89171Y122289D01*
X89036Y121261D01*
X89171Y120234D01*
X89568Y119276D01*
X90199Y118454D01*
X91022Y117823D01*
X91979Y117426D01*
X93007Y117290D01*
X94035Y117426D01*
X94515Y117625D01*
X97062Y115077D01*
X97551Y114751D01*
X98127Y114636D01*
X102132D01*
X106266Y110503D01*
Y70080D01*
X106380Y69504D01*
X106707Y69016D01*
X113596Y62126D01*
X114085Y61800D01*
X114661Y61685D01*
X115295D01*
X115486Y61223D01*
X109659Y55397D01*
X109333Y54908D01*
X109218Y54332D01*
Y29365D01*
X94785Y14932D01*
X94385Y14984D01*
X91629D01*
X90961Y14896D01*
X90339Y14638D01*
X89804Y14228D01*
X89688Y14077D01*
X89220Y14289D01*
X89292Y14647D01*
Y19214D01*
X89194Y19706D01*
X88915Y20122D01*
X88499Y20401D01*
X88007Y20499D01*
X84228D01*
X83736Y20401D01*
X83319Y20122D01*
X83041Y19706D01*
X83026Y19630D01*
X82516D01*
X82501Y19706D01*
X82222Y20122D01*
X81806Y20401D01*
X81314Y20499D01*
X77535D01*
X77043Y20401D01*
X76626Y20122D01*
X76348Y19706D01*
X76250Y19214D01*
Y14647D01*
X76348Y14156D01*
X76626Y13739D01*
X77043Y13461D01*
X77535Y13363D01*
X81314D01*
X81806Y13461D01*
X82222Y13739D01*
X82501Y14156D01*
X82516Y14231D01*
X83026D01*
X83041Y14156D01*
X83319Y13739D01*
X83736Y13461D01*
X84228Y13363D01*
X88007D01*
X88499Y13461D01*
X89107Y13266D01*
X89168Y13149D01*
X89136Y13071D01*
X89048Y12403D01*
Y9647D01*
X89136Y8979D01*
X89394Y8357D01*
X89804Y7822D01*
X90339Y7412D01*
X90961Y7154D01*
X91629Y7066D01*
X94385D01*
X95053Y7154D01*
X95676Y7412D01*
X96210Y7822D01*
X96620Y8357D01*
X96878Y8979D01*
X96890Y9067D01*
X97403Y9134D01*
X97442Y9040D01*
X98073Y8217D01*
X98896Y7586D01*
X99853Y7190D01*
X100881Y7054D01*
X101909Y7190D01*
X102867Y7586D01*
X103689Y8217D01*
X104320Y9040D01*
X104548Y9589D01*
X105089D01*
X105316Y9040D01*
X105947Y8217D01*
X106770Y7586D01*
X107727Y7190D01*
X108755Y7054D01*
X109783Y7190D01*
X110741Y7586D01*
X111563Y8217D01*
X112194Y9040D01*
X112422Y9589D01*
X112963D01*
X113190Y9040D01*
X113821Y8217D01*
X114644Y7586D01*
X115601Y7190D01*
X116629Y7054D01*
X117657Y7190D01*
X118615Y7586D01*
X119437Y8217D01*
X120068Y9040D01*
X120296Y9589D01*
X120837D01*
X121064Y9040D01*
X121695Y8217D01*
X122518Y7586D01*
X123476Y7190D01*
X124503Y7054D01*
X125531Y7190D01*
X126489Y7586D01*
X127311Y8217D01*
X127942Y9040D01*
X128170Y9589D01*
X128711D01*
X128938Y9040D01*
X129569Y8217D01*
X130392Y7586D01*
X131350Y7190D01*
X132377Y7054D01*
X133405Y7190D01*
X134363Y7586D01*
X135185Y8217D01*
X135816Y9040D01*
X136044Y9589D01*
X136585D01*
X136812Y9040D01*
X137443Y8217D01*
X138266Y7586D01*
X139224Y7190D01*
X140251Y7054D01*
X141279Y7190D01*
X142237Y7586D01*
X143059Y8217D01*
X143690Y9040D01*
X143918Y9589D01*
X144459D01*
X144686Y9040D01*
X145317Y8217D01*
X146140Y7586D01*
X147098Y7190D01*
X148125Y7054D01*
X149153Y7190D01*
X150111Y7586D01*
X150933Y8217D01*
X151564Y9040D01*
X151792Y9589D01*
X152333D01*
X152560Y9040D01*
X153191Y8217D01*
X154014Y7586D01*
X154972Y7190D01*
X155999Y7054D01*
X157027Y7190D01*
X157985Y7586D01*
X158807Y8217D01*
X159438Y9040D01*
X159666Y9589D01*
X160207D01*
X160434Y9040D01*
X161065Y8217D01*
X161888Y7586D01*
X162846Y7190D01*
X163873Y7054D01*
X164901Y7190D01*
X165859Y7586D01*
X166681Y8217D01*
X167312Y9040D01*
X167540Y9589D01*
X168081D01*
X168308Y9040D01*
X168939Y8217D01*
X169762Y7586D01*
X170720Y7190D01*
X171747Y7054D01*
X172775Y7190D01*
X173733Y7586D01*
X174555Y8217D01*
X175186Y9040D01*
X175414Y9589D01*
X175955D01*
X176182Y9040D01*
X176813Y8217D01*
X177636Y7586D01*
X178594Y7190D01*
X179621Y7054D01*
X180649Y7190D01*
X181607Y7586D01*
X182429Y8217D01*
X183060Y9040D01*
X183457Y9997D01*
X183592Y11025D01*
X183457Y12053D01*
X183060Y13011D01*
X182429Y13833D01*
X181607Y14464D01*
X180649Y14861D01*
X179621Y14996D01*
X178594Y14861D01*
X178113Y14662D01*
X168875Y23901D01*
X168386Y24227D01*
X167810Y24341D01*
X148749D01*
X140772Y32318D01*
Y43998D01*
X140715Y44285D01*
X141065Y44774D01*
X141087Y44785D01*
X142456D01*
X142855Y44864D01*
X143064Y45004D01*
X143401Y45057D01*
X143737Y45004D01*
X143946Y44864D01*
X144346Y44785D01*
X145506D01*
X145777Y44382D01*
X145797Y44285D01*
X145728Y43937D01*
Y41890D01*
X145807Y41490D01*
X146034Y41152D01*
X146372Y40925D01*
X146772Y40846D01*
X148661D01*
X149061Y40925D01*
X149270Y41065D01*
X149606Y41119D01*
X149943Y41065D01*
X150152Y40925D01*
X150551Y40846D01*
X151201D01*
Y42913D01*
X151496D01*
Y43209D01*
X153485D01*
Y43937D01*
X153416Y44285D01*
X153436Y44382D01*
X153707Y44785D01*
X154503D01*
X154903Y44864D01*
X155241Y45090D01*
X155467Y45429D01*
X155547Y45828D01*
Y46557D01*
X153558D01*
Y47147D01*
X155547D01*
Y47876D01*
X155467Y48275D01*
X155363Y48431D01*
X155442Y48888D01*
X155532Y49011D01*
X155792Y49185D01*
X156019Y49523D01*
X156098Y49923D01*
Y50572D01*
X151963D01*
Y49923D01*
X152043Y49523D01*
X152165Y49340D01*
X152195Y49032D01*
X152050Y48730D01*
X152005Y48700D01*
X151669Y48647D01*
X151332Y48700D01*
X151123Y48840D01*
X150724Y48919D01*
X149914D01*
Y49116D01*
X149846Y49461D01*
X149650Y49754D01*
X148367Y51037D01*
X148398Y51195D01*
Y53618D01*
X148573Y53884D01*
X148840Y54059D01*
X151263D01*
X151463Y54099D01*
X151858Y53871D01*
X151963Y53765D01*
Y53702D01*
X152043Y53303D01*
X152182Y53094D01*
X152236Y52758D01*
X152182Y52421D01*
X152043Y52212D01*
X151963Y51813D01*
Y51163D01*
X156098D01*
Y51813D01*
X156019Y52212D01*
X155879Y52421D01*
X155825Y52758D01*
X155879Y53094D01*
X156019Y53303D01*
X156098Y53702D01*
Y55592D01*
X156019Y55992D01*
X155792Y56330D01*
X155454Y56556D01*
X155054Y56636D01*
X153007D01*
X152608Y56556D01*
X152593Y56547D01*
X152143Y56847D01*
X152158Y56923D01*
Y57647D01*
X152090Y57990D01*
X151903Y58269D01*
X152090Y58549D01*
X152158Y58891D01*
Y59616D01*
X152090Y59958D01*
X151903Y60238D01*
X152090Y60517D01*
X152158Y60860D01*
Y60927D01*
X149976D01*
Y61517D01*
X152158D01*
Y61584D01*
X152588Y61986D01*
X156642D01*
X156691Y61913D01*
X157276Y61522D01*
X157968Y61384D01*
X158659Y61522D01*
X159245Y61913D01*
X159637Y62499D01*
X159679Y62713D01*
X160222Y62878D01*
X161117Y61982D01*
Y57285D01*
X172141D01*
Y58918D01*
X173622D01*
X174429Y59078D01*
X175112Y59535D01*
X176490Y60913D01*
X176843Y61441D01*
X177471Y61861D01*
X177915Y62525D01*
X178071Y63309D01*
Y65198D01*
X177915Y65982D01*
X177807Y66143D01*
X177915Y66305D01*
X178071Y67088D01*
Y68978D01*
X177915Y69761D01*
X177471Y70425D01*
X177464Y70500D01*
X177858Y70926D01*
X199017D01*
X199824Y71086D01*
X200507Y71543D01*
X209239Y80274D01*
X233169D01*
X233976Y80435D01*
X234660Y80892D01*
X244404Y90636D01*
X244860Y91320D01*
X245021Y92126D01*
Y94464D01*
X245306Y94655D01*
X245576Y95059D01*
X253937Y95059D01*
Y95059D01*
X254429D01*
Y97441D01*
Y99823D01*
X253937D01*
Y99823D01*
X245576Y99823D01*
X245306Y100227D01*
X244642Y100671D01*
X243858Y100827D01*
X241968D01*
X241185Y100671D01*
X240521Y100227D01*
X240251Y99823D01*
X231693Y99823D01*
X230157D01*
X226220D01*
X224173Y99823D01*
X224173Y99823D01*
X222284D01*
X222283Y99823D01*
X221260D01*
Y99823D01*
X216634D01*
X216634Y116339D01*
X218110D01*
Y116339D01*
X218137Y116360D01*
X218347Y116319D01*
X218996D01*
Y118701D01*
Y121083D01*
X218607D01*
X218347Y121083D01*
X218110Y121063D01*
X218110Y121063D01*
X216677D01*
X216360Y121449D01*
X216362Y121457D01*
X216270Y121917D01*
X216009Y122308D01*
X215618Y122569D01*
X215158Y122661D01*
X211221D01*
X210760Y122569D01*
X210369Y122308D01*
X210108Y121917D01*
X210016Y121457D01*
Y120079D01*
X210108Y119618D01*
X210369Y119227D01*
X210760Y118966D01*
X211221Y118875D01*
X211291Y118888D01*
X211452Y118828D01*
X211791Y118484D01*
Y118209D01*
X214173D01*
Y117618D01*
X211791D01*
Y117126D01*
X211791D01*
X211791Y114880D01*
X208619D01*
X208369Y115254D01*
X207783Y115645D01*
X207091Y115783D01*
X206400Y115645D01*
X205814Y115254D01*
X205422Y114668D01*
X205285Y113976D01*
X205422Y113285D01*
X205814Y112699D01*
X206400Y112308D01*
X206625Y112263D01*
Y111753D01*
X206400Y111708D01*
X205814Y111317D01*
X205422Y110731D01*
X205285Y110039D01*
X205422Y109348D01*
X205814Y108762D01*
X206400Y108370D01*
X206625Y108326D01*
Y107816D01*
X206400Y107771D01*
X205814Y107380D01*
X205422Y106794D01*
X205285Y106102D01*
X205422Y105411D01*
X205814Y104825D01*
X206400Y104434D01*
X207091Y104296D01*
X207783Y104434D01*
X208369Y104825D01*
X208619Y105199D01*
X211791D01*
X211791Y100838D01*
X193567D01*
X193424Y100981D01*
Y105118D01*
Y108516D01*
X193497Y108565D01*
X193889Y109151D01*
X194026Y109843D01*
X193889Y110534D01*
X193497Y111120D01*
X193245Y111288D01*
X193397Y111788D01*
X195094D01*
X195585Y111886D01*
X196002Y112164D01*
X196281Y112581D01*
X196378Y113072D01*
Y117639D01*
X196281Y118131D01*
X196002Y118548D01*
X195585Y118826D01*
X195094Y118924D01*
X191314D01*
X190823Y118826D01*
X190406Y118548D01*
X190128Y118131D01*
X190112Y118055D01*
X189603D01*
X189588Y118131D01*
X189309Y118548D01*
X188892Y118826D01*
X188401Y118924D01*
X184621D01*
X184130Y118826D01*
X183713Y118548D01*
X183435Y118131D01*
X183337Y117639D01*
Y113072D01*
X183435Y112581D01*
X183713Y112164D01*
X184130Y111886D01*
X184621Y111788D01*
X188401D01*
X188892Y111886D01*
X189309Y112164D01*
X189588Y112581D01*
X189603Y112657D01*
X190112D01*
X190128Y112581D01*
X190406Y112164D01*
X190823Y111886D01*
X191105Y111830D01*
X191210Y111299D01*
X190943Y111120D01*
X190551Y110534D01*
X190413Y109843D01*
X190551Y109151D01*
X190943Y108565D01*
X191016Y108516D01*
Y106322D01*
X173743D01*
Y106614D01*
X173653Y107067D01*
X173396Y107451D01*
X173012Y107708D01*
X172559Y107798D01*
X169370D01*
X168917Y107708D01*
X168533Y107451D01*
X168388Y107235D01*
X168370Y107228D01*
X167851D01*
X167833Y107235D01*
X167688Y107451D01*
X167304Y107708D01*
X166850Y107798D01*
X165551D01*
Y105118D01*
Y102438D01*
X166850D01*
X167304Y102528D01*
X167688Y102785D01*
X167833Y103001D01*
X167851Y103008D01*
X168370D01*
X168388Y103001D01*
X168533Y102785D01*
X168917Y102528D01*
X169370Y102438D01*
X169760D01*
Y101499D01*
X169370D01*
X168917Y101409D01*
X168533Y101152D01*
X168388Y100936D01*
X168370Y100929D01*
X167851D01*
X167833Y100936D01*
X167688Y101152D01*
X167304Y101409D01*
X166850Y101499D01*
X165551D01*
Y98819D01*
Y96139D01*
X166850D01*
X167304Y96229D01*
X167688Y96486D01*
X167833Y96702D01*
X167851Y96709D01*
X168370D01*
X168388Y96702D01*
X168533Y96486D01*
X168917Y96229D01*
X169370Y96139D01*
X172559D01*
X173012Y96229D01*
X173396Y96486D01*
X173653Y96870D01*
X173743Y97323D01*
Y100315D01*
X173653Y100768D01*
X173396Y101152D01*
X173012Y101409D01*
X172559Y101499D01*
X172169D01*
Y102438D01*
X172559D01*
X173012Y102528D01*
X173396Y102785D01*
X173653Y103169D01*
X173743Y103622D01*
Y103914D01*
X190757D01*
X190848Y103552D01*
X190837Y103544D01*
X190411Y103275D01*
X190039Y103348D01*
X188150D01*
X187750Y103269D01*
X187541Y103129D01*
X187205Y103076D01*
X186868Y103129D01*
X186659Y103269D01*
X186260Y103348D01*
X185610D01*
Y101281D01*
Y99214D01*
X186260D01*
X186659Y99293D01*
X186868Y99433D01*
X187205Y99487D01*
X187541Y99433D01*
X187750Y99293D01*
X188150Y99214D01*
X190039D01*
X190439Y99293D01*
X190515Y99344D01*
X191016Y99077D01*
Y97678D01*
X190515Y97411D01*
X190439Y97462D01*
X190039Y97541D01*
X188150D01*
X187750Y97462D01*
X187541Y97322D01*
X187205Y97269D01*
X186868Y97322D01*
X186659Y97462D01*
X186260Y97541D01*
X185610D01*
Y95474D01*
X185315D01*
Y95179D01*
X183326D01*
Y94450D01*
X183392Y94121D01*
X183318Y93931D01*
X183092Y93621D01*
X139999D01*
X139808Y94083D01*
X155639Y109914D01*
X169779D01*
X170355Y110028D01*
X170843Y110354D01*
X178113Y117625D01*
X178594Y117426D01*
X179621Y117290D01*
X180649Y117426D01*
X181607Y117823D01*
X182429Y118454D01*
X183060Y119276D01*
X183457Y120234D01*
X183592Y121261D01*
X183457Y122289D01*
X183060Y123247D01*
X182429Y124069D01*
X181607Y124700D01*
X180649Y125097D01*
X179621Y125232D01*
D02*
G37*
G36*
X254429Y121090D02*
X254134D01*
X254099Y121083D01*
X251083D01*
Y118701D01*
Y116319D01*
X251732D01*
X252132Y116398D01*
X252470Y116624D01*
X252530Y116713D01*
X253155D01*
X253596Y116419D01*
X254134Y116312D01*
X254429D01*
Y118701D01*
Y121090D01*
D02*
G37*
G36*
X88007Y118924D02*
X84228D01*
X83736Y118826D01*
X83319Y118548D01*
X83041Y118131D01*
X83026Y118055D01*
X82516D01*
X82501Y118131D01*
X82222Y118548D01*
X81806Y118826D01*
X81314Y118924D01*
X77535D01*
X77043Y118826D01*
X76626Y118548D01*
X76348Y118131D01*
X76250Y117639D01*
Y113072D01*
X76348Y112581D01*
X76626Y112164D01*
X77043Y111886D01*
X77535Y111788D01*
X81314D01*
X81806Y111886D01*
X82222Y112164D01*
X82501Y112581D01*
X82516Y112657D01*
X83026D01*
X83041Y112581D01*
X83319Y112164D01*
X83736Y111886D01*
X84228Y111788D01*
X88007D01*
X88499Y111886D01*
X88915Y112164D01*
X89194Y112581D01*
X89292Y113072D01*
Y117639D01*
X89194Y118131D01*
X88915Y118548D01*
X88499Y118826D01*
X88007Y118924D01*
D02*
G37*
G36*
X7874Y127209D02*
X6538Y127034D01*
X5293Y126518D01*
X4224Y125698D01*
X3403Y124628D01*
X2888Y123383D01*
X2712Y122047D01*
X2888Y120711D01*
X3403Y119466D01*
X4224Y118397D01*
X5293Y117577D01*
X6538Y117061D01*
X7874Y116885D01*
X9210Y117061D01*
X10455Y117577D01*
X11524Y118397D01*
X12345Y119466D01*
X12860Y120711D01*
X13036Y122047D01*
X12860Y123383D01*
X12345Y124628D01*
X11524Y125698D01*
X10455Y126518D01*
X9210Y127034D01*
X7874Y127209D01*
D02*
G37*
G36*
X223524Y121083D02*
Y118701D01*
Y116319D01*
X224173D01*
X224274Y116339D01*
X225134D01*
X225454Y115839D01*
X225359Y115359D01*
X225497Y114668D01*
X225888Y114082D01*
X226474Y113690D01*
X227165Y113553D01*
X227857Y113690D01*
X228443Y114082D01*
X228834Y114668D01*
X228879Y114893D01*
X229389D01*
X229434Y114668D01*
X229825Y114082D01*
X230411Y113690D01*
X231102Y113553D01*
X231794Y113690D01*
X232380Y114082D01*
X232771Y114668D01*
X232909Y115359D01*
X232813Y115839D01*
X233134Y116339D01*
X233994D01*
X234095Y116319D01*
X235984D01*
X236085Y116339D01*
X236945D01*
X237265Y115839D01*
X237170Y115359D01*
X237308Y114668D01*
X237699Y114082D01*
X238285Y113690D01*
X238976Y113553D01*
X239668Y113690D01*
X240254Y114082D01*
X240645Y114668D01*
X240690Y114893D01*
X241200D01*
X241245Y114668D01*
X241636Y114082D01*
X242222Y113690D01*
X242914Y113553D01*
X243605Y113690D01*
X244191Y114082D01*
X244582Y114668D01*
X244720Y115359D01*
X244624Y115839D01*
X244945Y116339D01*
X245805D01*
X245905Y116319D01*
X247795D01*
X247896Y116339D01*
X249742D01*
X249843Y116319D01*
X250492D01*
Y118701D01*
Y121083D01*
X223524D01*
D02*
G37*
G36*
X219587D02*
Y118701D01*
Y116319D01*
X220236D01*
X220636Y116398D01*
X220974Y116624D01*
X221019Y116692D01*
X221500D01*
X221546Y116624D01*
X221884Y116398D01*
X222284Y116319D01*
X222933D01*
Y118701D01*
Y121083D01*
X219587D01*
D02*
G37*
G36*
X93307Y115194D02*
X92616Y115056D01*
X92030Y114665D01*
X91638Y114079D01*
X91501Y113387D01*
X91638Y112696D01*
X92030Y112110D01*
X92404Y111860D01*
Y111245D01*
X92105Y111046D01*
X92011Y110905D01*
X91454D01*
X91359Y111046D01*
X91034Y111263D01*
X90650Y111340D01*
X89075D01*
X88691Y111263D01*
X88365Y111046D01*
X88148Y110720D01*
X88075Y110354D01*
X87353D01*
X87104Y110726D01*
X86518Y111118D01*
X85827Y111255D01*
X85136Y111118D01*
X84549Y110726D01*
X84158Y110140D01*
X84021Y109449D01*
X84158Y108758D01*
X84549Y108171D01*
X85136Y107780D01*
X85827Y107642D01*
X86518Y107780D01*
X87104Y108171D01*
X87355Y108547D01*
X88075D01*
X88148Y108180D01*
X88365Y107855D01*
X88506Y107761D01*
Y107203D01*
X88365Y107109D01*
X88148Y106783D01*
X88071Y106399D01*
Y104628D01*
X88148Y104244D01*
X88365Y103918D01*
X88691Y103700D01*
X89075Y103624D01*
X90650D01*
X91034Y103700D01*
X91359Y103918D01*
X91454Y104059D01*
X92011D01*
X92105Y103918D01*
X92431Y103700D01*
X92815Y103624D01*
X94390D01*
X94774Y103700D01*
X95099Y103918D01*
X95317Y104244D01*
X95393Y104628D01*
Y105009D01*
X95715Y105073D01*
X96008Y105268D01*
X97290Y106551D01*
X97732Y106463D01*
X98423Y106600D01*
X99009Y106992D01*
X99400Y107578D01*
X99538Y108269D01*
X99400Y108960D01*
X99009Y109547D01*
X98423Y109938D01*
X97732Y110076D01*
X97040Y109938D01*
X96454Y109547D01*
X96063Y108960D01*
X95925Y108269D01*
X96013Y107828D01*
X95458Y107273D01*
X95255Y107358D01*
X95195Y107548D01*
X95156Y107940D01*
X95317Y108180D01*
X95393Y108565D01*
Y110336D01*
X95317Y110720D01*
X95099Y111046D01*
X94774Y111263D01*
X94390Y111340D01*
X94210D01*
Y111860D01*
X94584Y112110D01*
X94976Y112696D01*
X95113Y113387D01*
X94976Y114079D01*
X94584Y114665D01*
X93998Y115056D01*
X93307Y115194D01*
D02*
G37*
G36*
X164961Y107798D02*
X163662D01*
X163208Y107708D01*
X162824Y107451D01*
X162567Y107067D01*
X162477Y106614D01*
Y105413D01*
X164961D01*
Y107798D01*
D02*
G37*
G36*
Y104823D02*
X162477D01*
Y103622D01*
X162567Y103169D01*
X162824Y102785D01*
X163208Y102528D01*
X163662Y102438D01*
X164961D01*
Y104823D01*
D02*
G37*
G36*
X185020Y103348D02*
X184370D01*
X183971Y103269D01*
X183632Y103043D01*
X183406Y102704D01*
X183326Y102305D01*
Y101576D01*
X185020D01*
Y103348D01*
D02*
G37*
G36*
X45395Y99464D02*
X45292Y99446D01*
X45188Y99455D01*
X43013Y99224D01*
X42914Y99193D01*
X42809Y99189D01*
X40683Y98679D01*
X40588Y98636D01*
X40485Y98618D01*
X38441Y97840D01*
X38353Y97785D01*
X38253Y97754D01*
X36327Y96719D01*
X36246Y96653D01*
X36151Y96610D01*
X34374Y95336D01*
X34302Y95259D01*
X34214Y95205D01*
X32615Y93712D01*
X32554Y93628D01*
X32473Y93562D01*
X31079Y91876D01*
X31030Y91785D01*
X30958Y91709D01*
X30154Y90433D01*
X30079Y90236D01*
X29979Y90052D01*
X29734Y89259D01*
X29712Y89050D01*
X29664Y88846D01*
X29632Y88017D01*
X29665Y87809D01*
X29670Y87599D01*
X29854Y86790D01*
X29940Y86599D01*
X30000Y86397D01*
X30387Y85663D01*
X30519Y85500D01*
X30629Y85321D01*
X30701Y85244D01*
X30501Y84785D01*
X29746D01*
X29331Y85261D01*
X29366Y85433D01*
X29228Y86124D01*
X28836Y86710D01*
X28250Y87102D01*
X27559Y87239D01*
X26868Y87102D01*
X26282Y86710D01*
X25890Y86124D01*
X25753Y85433D01*
X25840Y84992D01*
X21409Y80560D01*
X21213Y80267D01*
X21144Y79921D01*
Y75641D01*
X20770Y75392D01*
X20379Y74805D01*
X20241Y74114D01*
X20379Y73423D01*
X20770Y72837D01*
X21356Y72445D01*
X22047Y72308D01*
X22739Y72445D01*
X23325Y72837D01*
X23716Y73423D01*
X23854Y74114D01*
X23716Y74805D01*
X23325Y75392D01*
X22951Y75641D01*
Y79547D01*
X27118Y83714D01*
X27559Y83627D01*
X27846Y83684D01*
X28346Y83274D01*
Y83092D01*
X30413D01*
Y82502D01*
X28346D01*
Y81852D01*
X28406Y81551D01*
X28185Y81264D01*
X28031Y81143D01*
X27559Y81237D01*
X26868Y81100D01*
X26282Y80708D01*
X25890Y80122D01*
X25753Y79431D01*
X25890Y78739D01*
X26282Y78153D01*
X26556Y77970D01*
Y76755D01*
X26282Y76573D01*
X25890Y75986D01*
X25753Y75295D01*
X25890Y74604D01*
X26282Y74018D01*
X26868Y73626D01*
X27559Y73489D01*
X28250Y73626D01*
X28836Y74018D01*
X29228Y74604D01*
X29366Y75295D01*
X29228Y75986D01*
X28852Y76549D01*
X28891Y76742D01*
X28997Y77067D01*
X29063Y77094D01*
X29390Y77029D01*
X30768D01*
X30992Y76529D01*
X30711Y76215D01*
X30605Y76034D01*
X30475Y75868D01*
X30102Y75127D01*
X30045Y74925D01*
X29963Y74732D01*
X29794Y73919D01*
X29792Y73709D01*
X29763Y73501D01*
X29810Y72673D01*
X29862Y72470D01*
X29888Y72261D01*
X30147Y71473D01*
X30251Y71290D01*
X30329Y71096D01*
X30557Y70749D01*
X30557Y70749D01*
X31152Y69841D01*
X31224Y69766D01*
X31275Y69676D01*
X32687Y68027D01*
X32769Y67963D01*
X32831Y67879D01*
X34442Y66424D01*
X34531Y66371D01*
X34603Y66296D01*
X36387Y65058D01*
X36482Y65017D01*
X36563Y64952D01*
X38491Y63952D01*
X38590Y63924D01*
X38679Y63870D01*
X40718Y63124D01*
X40821Y63108D01*
X40916Y63066D01*
X43033Y62588D01*
X43137Y62585D01*
X43236Y62555D01*
X45398Y62351D01*
X45501Y62361D01*
X45604Y62345D01*
X47774Y62418D01*
X47875Y62442D01*
X47978Y62438D01*
X50121Y62788D01*
X50218Y62825D01*
X50322Y62834D01*
X52402Y63455D01*
X52494Y63504D01*
X52595Y63526D01*
X54580Y64408D01*
X54664Y64468D01*
X54762Y64503D01*
X56617Y65631D01*
X56694Y65701D01*
X56786Y65749D01*
X58482Y67105D01*
X58549Y67184D01*
X58634Y67243D01*
X60143Y68804D01*
X60199Y68891D01*
X60276Y68961D01*
X61574Y70702D01*
X61618Y70796D01*
X61686Y70874D01*
X62750Y72767D01*
X62782Y72865D01*
X62839Y72952D01*
X63653Y74965D01*
X63673Y75067D01*
X63718Y75160D01*
X64268Y77261D01*
X64274Y77364D01*
X64307Y77463D01*
X64585Y79616D01*
X64578Y79720D01*
X64598Y79821D01*
Y82000D01*
X64577Y82103D01*
X64584Y82207D01*
X64303Y84376D01*
X64270Y84474D01*
X64263Y84579D01*
X63705Y86693D01*
X63660Y86787D01*
X63640Y86889D01*
X62815Y88915D01*
X62757Y89002D01*
X62724Y89101D01*
X61646Y91003D01*
X61577Y91082D01*
X61532Y91176D01*
X60217Y92924D01*
X60140Y92993D01*
X60083Y93081D01*
X58554Y94645D01*
X58468Y94704D01*
X58400Y94783D01*
X56683Y96137D01*
X56590Y96185D01*
X56513Y96255D01*
X54636Y97377D01*
X54538Y97412D01*
X54452Y97472D01*
X52447Y98343D01*
X52345Y98365D01*
X52252Y98413D01*
X50151Y99020D01*
X50047Y99028D01*
X49949Y99064D01*
X47787Y99395D01*
X47683Y99391D01*
X47581Y99413D01*
X45395Y99464D01*
D02*
G37*
G36*
X185020Y100986D02*
X183326D01*
Y100258D01*
X183406Y99858D01*
X183632Y99519D01*
X183971Y99293D01*
X184370Y99214D01*
X185020D01*
Y100986D01*
D02*
G37*
G36*
X164961Y101499D02*
X163662D01*
X163208Y101409D01*
X162824Y101152D01*
X162567Y100768D01*
X162477Y100315D01*
Y99114D01*
X164961D01*
Y101499D01*
D02*
G37*
G36*
Y98524D02*
X162477D01*
Y97323D01*
X162567Y96870D01*
X162824Y96486D01*
X163208Y96229D01*
X163662Y96139D01*
X164961D01*
Y98524D01*
D02*
G37*
G36*
X185020Y97541D02*
X184370D01*
X183971Y97462D01*
X183632Y97236D01*
X183406Y96897D01*
X183326Y96498D01*
Y95769D01*
X185020D01*
Y97541D01*
D02*
G37*
G36*
X164961Y54255D02*
X163662D01*
X163208Y54165D01*
X162824Y53908D01*
X162567Y53524D01*
X162477Y53071D01*
Y51870D01*
X164961D01*
Y54255D01*
D02*
G37*
G36*
Y51279D02*
X162477D01*
Y50079D01*
X162567Y49626D01*
X162824Y49241D01*
X163208Y48985D01*
X163662Y48895D01*
X164961D01*
Y51279D01*
D02*
G37*
G36*
X164961Y47956D02*
X163662D01*
X163208Y47866D01*
X162824Y47609D01*
X162567Y47225D01*
X162477Y46772D01*
Y45571D01*
X164961D01*
Y47956D01*
D02*
G37*
G36*
Y44980D02*
X162477D01*
Y43780D01*
X162567Y43326D01*
X162824Y42942D01*
X163208Y42685D01*
X163662Y42595D01*
X164961D01*
Y44980D01*
D02*
G37*
G36*
X153485Y42618D02*
X151791D01*
Y40846D01*
X152441D01*
X152840Y40925D01*
X153179Y41152D01*
X153405Y41490D01*
X153485Y41890D01*
Y42618D01*
D02*
G37*
G36*
X204725Y56343D02*
X203388Y56168D01*
X202143Y55652D01*
X201074Y54831D01*
X200254Y53762D01*
X199738Y52517D01*
X199562Y51181D01*
X199738Y49845D01*
X200254Y48600D01*
X201074Y47531D01*
X202143Y46710D01*
X203119Y46306D01*
Y43851D01*
X202143Y43447D01*
X201074Y42627D01*
X200254Y41557D01*
X199850Y40582D01*
X173722D01*
X173653Y40926D01*
X173396Y41310D01*
X173012Y41567D01*
X172559Y41657D01*
X172169D01*
Y42595D01*
X172559D01*
X173012Y42685D01*
X173396Y42942D01*
X173653Y43326D01*
X173743Y43780D01*
Y46772D01*
X173653Y47225D01*
X173396Y47609D01*
X173012Y47866D01*
X172559Y47956D01*
X172169D01*
Y48895D01*
X172559D01*
X173012Y48985D01*
X173396Y49241D01*
X173653Y49626D01*
X173743Y50079D01*
Y53071D01*
X173653Y53524D01*
X173396Y53908D01*
X173012Y54165D01*
X172559Y54255D01*
X169370D01*
X168917Y54165D01*
X168533Y53908D01*
X168388Y53692D01*
X168370Y53685D01*
X167851D01*
X167833Y53692D01*
X167688Y53908D01*
X167304Y54165D01*
X166850Y54255D01*
X165551D01*
Y51575D01*
Y48895D01*
X166850D01*
X167304Y48985D01*
X167688Y49241D01*
X167833Y49458D01*
X167851Y49465D01*
X168370D01*
X168388Y49458D01*
X168533Y49241D01*
X168917Y48985D01*
X169370Y48895D01*
X169760D01*
Y47956D01*
X169370D01*
X168917Y47866D01*
X168533Y47609D01*
X168388Y47392D01*
X168370Y47385D01*
X167851D01*
X167833Y47392D01*
X167688Y47609D01*
X167304Y47866D01*
X166850Y47956D01*
X165551D01*
Y45276D01*
Y42595D01*
X166850D01*
X167304Y42685D01*
X167688Y42942D01*
X167833Y43159D01*
X167851Y43166D01*
X168370D01*
X168388Y43159D01*
X168533Y42942D01*
X168917Y42685D01*
X169370Y42595D01*
X169760D01*
Y41657D01*
X169370D01*
X168917Y41567D01*
X168533Y41310D01*
X168388Y41093D01*
X168370Y41086D01*
X167851D01*
X167833Y41093D01*
X167688Y41310D01*
X167304Y41567D01*
X166850Y41657D01*
X165551D01*
Y38976D01*
Y36296D01*
X166850D01*
X167304Y36386D01*
X167688Y36643D01*
X167833Y36860D01*
X167851Y36866D01*
X168370D01*
X168388Y36860D01*
X168533Y36643D01*
X168917Y36386D01*
X169370Y36296D01*
X169760D01*
Y35357D01*
X169370D01*
X168917Y35267D01*
X168533Y35011D01*
X168388Y34794D01*
X168370Y34787D01*
X167851D01*
X167833Y34794D01*
X167688Y35011D01*
X167304Y35267D01*
X166850Y35357D01*
X165551D01*
Y32677D01*
Y29997D01*
X166850D01*
X167304Y30087D01*
X167688Y30344D01*
X167833Y30560D01*
X167851Y30567D01*
X168370D01*
X168388Y30560D01*
X168533Y30344D01*
X168917Y30087D01*
X169370Y29997D01*
X172559D01*
X173012Y30087D01*
X173396Y30344D01*
X173653Y30728D01*
X173743Y31181D01*
Y34173D01*
X173653Y34626D01*
X173396Y35011D01*
X173012Y35267D01*
X172559Y35357D01*
X172169D01*
Y36296D01*
X172559D01*
X173012Y36386D01*
X173396Y36643D01*
X173653Y37027D01*
X173722Y37371D01*
X199850D01*
X200254Y36395D01*
X201074Y35326D01*
X202143Y34506D01*
X203388Y33990D01*
X204725Y33814D01*
X206061Y33990D01*
X207306Y34506D01*
X208375Y35326D01*
X209195Y36395D01*
X209711Y37640D01*
X209887Y38976D01*
X209711Y40312D01*
X209195Y41557D01*
X208375Y42627D01*
X207306Y43447D01*
X206330Y43851D01*
Y46306D01*
X207306Y46710D01*
X208375Y47531D01*
X209195Y48600D01*
X209711Y49845D01*
X209887Y51181D01*
X209711Y52517D01*
X209195Y53762D01*
X208375Y54831D01*
X207306Y55652D01*
X206061Y56168D01*
X204725Y56343D01*
D02*
G37*
G36*
X164961Y41657D02*
X163662D01*
X163208Y41567D01*
X162824Y41310D01*
X162567Y40926D01*
X162477Y40472D01*
Y39272D01*
X164961D01*
Y41657D01*
D02*
G37*
G36*
Y38681D02*
X162477D01*
Y37480D01*
X162567Y37027D01*
X162824Y36643D01*
X163208Y36386D01*
X163662Y36296D01*
X164961D01*
Y38681D01*
D02*
G37*
G36*
X164961Y35357D02*
X163662D01*
X163208Y35267D01*
X162824Y35011D01*
X162567Y34626D01*
X162477Y34173D01*
Y32972D01*
X164961D01*
Y35357D01*
D02*
G37*
G36*
X62599Y32676D02*
X52363D01*
Y31668D01*
X51863Y31401D01*
X51577Y31592D01*
X50886Y31729D01*
X50195Y31592D01*
X49609Y31200D01*
X49357Y30824D01*
X39765D01*
Y32676D01*
X29528D01*
Y27165D01*
X39765D01*
Y29017D01*
X49360D01*
X49609Y28646D01*
X50195Y28254D01*
X50886Y28117D01*
X51577Y28254D01*
X51863Y28445D01*
X52363Y28178D01*
Y27165D01*
X62599D01*
Y32676D01*
D02*
G37*
G36*
X106693Y34484D02*
X106002Y34346D01*
X105416Y33955D01*
X105024Y33368D01*
X104887Y32677D01*
X105024Y31986D01*
X105416Y31400D01*
X106002Y31008D01*
X106693Y30871D01*
X107384Y31008D01*
X107970Y31400D01*
X108362Y31986D01*
X108499Y32677D01*
X108362Y33368D01*
X107970Y33955D01*
X107384Y34346D01*
X106693Y34484D01*
D02*
G37*
G36*
X164961Y32382D02*
X162477D01*
Y31181D01*
X162567Y30728D01*
X162824Y30344D01*
X163208Y30087D01*
X163662Y29997D01*
X164961D01*
Y32382D01*
D02*
G37*
G36*
X103543Y104562D02*
X102852Y104425D01*
X102266Y104033D01*
X101874Y103447D01*
X101737Y102756D01*
X101874Y102065D01*
X102266Y101479D01*
X102486Y101332D01*
X102414Y101224D01*
X102345Y100878D01*
Y31450D01*
X101971Y31200D01*
X101579Y30614D01*
X101442Y29923D01*
X101579Y29232D01*
X101971Y28646D01*
X102557Y28254D01*
X103248Y28117D01*
X103939Y28254D01*
X104525Y28646D01*
X104917Y29232D01*
X105054Y29923D01*
X104917Y30614D01*
X104525Y31200D01*
X104151Y31450D01*
Y100504D01*
X104182Y100535D01*
X104182Y100535D01*
X104378Y100828D01*
X104446Y101173D01*
Y101229D01*
X104821Y101479D01*
X105212Y102065D01*
X105350Y102756D01*
X105212Y103447D01*
X104821Y104033D01*
X104235Y104425D01*
X103543Y104562D01*
D02*
G37*
G36*
X195094Y20499D02*
X191314D01*
X190823Y20401D01*
X190406Y20122D01*
X190128Y19706D01*
X190112Y19630D01*
X189603D01*
X189588Y19706D01*
X189309Y20122D01*
X188892Y20401D01*
X188401Y20499D01*
X184621D01*
X184130Y20401D01*
X183713Y20122D01*
X183435Y19706D01*
X183337Y19214D01*
Y14647D01*
X183435Y14156D01*
X183713Y13739D01*
X184130Y13461D01*
X184621Y13363D01*
X188401D01*
X188892Y13461D01*
X189309Y13739D01*
X189588Y14156D01*
X189603Y14231D01*
X190112D01*
X190128Y14156D01*
X190406Y13739D01*
X190823Y13461D01*
X191314Y13363D01*
X195094D01*
X195585Y13461D01*
X196002Y13739D01*
X196281Y14156D01*
X196378Y14647D01*
Y19214D01*
X196281Y19706D01*
X196002Y20122D01*
X195585Y20401D01*
X195094Y20499D01*
D02*
G37*
G36*
X62599Y16928D02*
X57776D01*
Y14468D01*
X62599D01*
Y16928D01*
D02*
G37*
G36*
X57186D02*
X52363D01*
Y14468D01*
X57186D01*
Y16928D01*
D02*
G37*
G36*
X39765D02*
X34942D01*
Y14468D01*
X39765D01*
Y16928D01*
D02*
G37*
G36*
X34351D02*
X29528D01*
Y14468D01*
X34351D01*
Y16928D01*
D02*
G37*
G36*
X62599Y13877D02*
X57776D01*
Y11417D01*
X62599D01*
Y13877D01*
D02*
G37*
G36*
X57186D02*
X52363D01*
Y11417D01*
X57186D01*
Y13877D01*
D02*
G37*
G36*
X39765D02*
X34942D01*
Y11417D01*
X39765D01*
Y13877D01*
D02*
G37*
G36*
X34351D02*
X29528D01*
Y11417D01*
X34351D01*
Y13877D01*
D02*
G37*
%LPD*%
G36*
X193302Y100198D02*
X211791D01*
Y99114D01*
X211791D01*
Y98524D01*
X214173D01*
Y97933D01*
X211791D01*
Y97658D01*
X211452Y97314D01*
X211291Y97253D01*
X211221Y97267D01*
X210760Y97176D01*
X210369Y96914D01*
X210108Y96524D01*
X210016Y96063D01*
Y94685D01*
X210108Y94224D01*
X210369Y93834D01*
X210760Y93572D01*
X211221Y93481D01*
X215158D01*
X215618Y93572D01*
X216009Y93834D01*
X216270Y94224D01*
X216362Y94685D01*
X216360Y94692D01*
X216677Y95079D01*
X218246Y95079D01*
X218347Y95059D01*
X220071D01*
X220236Y95059D01*
X220571Y94615D01*
Y92242D01*
X196831D01*
X195716Y93357D01*
X195423Y93553D01*
X195077Y93621D01*
X192500D01*
X192148Y93977D01*
X192213Y100636D01*
X192676Y100825D01*
X193302Y100198D01*
D02*
G37*
G36*
X196313Y77214D02*
X196225Y76773D01*
X196363Y76082D01*
X196658Y75640D01*
X196455Y75141D01*
X192378D01*
X191994Y75640D01*
X192062Y75984D01*
X191925Y76675D01*
X191533Y77262D01*
X190947Y77653D01*
X190256Y77791D01*
X189565Y77653D01*
X188979Y77262D01*
X188931Y77190D01*
X162889D01*
X162889Y77190D01*
X162428Y77098D01*
X162038Y76837D01*
X160174Y74974D01*
X159806Y75276D01*
X159816Y75338D01*
X159956Y75547D01*
X160035Y75946D01*
Y76596D01*
X157968D01*
X155901D01*
Y75946D01*
X155980Y75547D01*
X156120Y75338D01*
X156173Y75002D01*
X156120Y74665D01*
X155980Y74456D01*
X155901Y74057D01*
Y72167D01*
X155980Y71767D01*
X156206Y71429D01*
X156545Y71203D01*
X156764Y71159D01*
Y70422D01*
X156691Y70373D01*
X156642Y70300D01*
X152588D01*
X152158Y70702D01*
Y70769D01*
X149976D01*
Y71360D01*
X152158D01*
Y71427D01*
X152114Y71649D01*
X152287Y72037D01*
X152405Y72198D01*
X152408Y72199D01*
X152701Y72394D01*
X153887Y73580D01*
X154083Y73873D01*
X154151Y74219D01*
Y78368D01*
X155788Y80004D01*
X193524D01*
X196313Y77214D01*
D02*
G37*
%LPC*%
G36*
X158991Y78880D02*
X158263D01*
Y77187D01*
X160035D01*
Y77836D01*
X159956Y78236D01*
X159729Y78574D01*
X159391Y78800D01*
X158991Y78880D01*
D02*
G37*
G36*
X157673D02*
X156944D01*
X156545Y78800D01*
X156206Y78574D01*
X155980Y78236D01*
X155901Y77836D01*
Y77187D01*
X157673D01*
Y78880D01*
D02*
G37*
%LPD*%
D10*
X162889Y75986D02*
X190256D01*
X157968Y73033D02*
X159936D01*
X149976Y69096D02*
X157968D01*
X149897D02*
X149976D01*
Y63191D02*
X157968D01*
X149897D02*
X149976D01*
X189223Y95474D02*
X189227Y95479D01*
X192220D01*
Y101281D01*
X192220D02*
X192220D01*
X159936Y73033D02*
X162889Y75986D01*
X157968Y69096D02*
X157968Y69096D01*
X157968Y69096D02*
Y73033D01*
Y69096D02*
X157968Y69096D01*
X189223Y101281D02*
X192220D01*
X192220Y101281D01*
X170965Y38976D02*
Y45276D01*
Y51575D01*
Y32677D02*
Y38976D01*
Y105118D02*
X192220D01*
Y101281D02*
Y105118D01*
X170965Y98819D02*
Y105118D01*
X192220D02*
Y109843D01*
D18*
X43306Y82482D02*
D03*
D19*
Y79332D02*
D03*
X48817Y82482D02*
D03*
Y79332D02*
D03*
D20*
X122653Y55317D02*
D03*
Y57285D02*
D03*
Y59254D02*
D03*
Y61222D02*
D03*
Y63191D02*
D03*
Y65159D02*
D03*
Y67128D02*
D03*
Y69096D02*
D03*
Y71065D02*
D03*
Y73033D02*
D03*
Y75002D02*
D03*
Y76970D02*
D03*
X149976D02*
D03*
Y75002D02*
D03*
Y73033D02*
D03*
Y71065D02*
D03*
Y69096D02*
D03*
Y67128D02*
D03*
Y65159D02*
D03*
Y63191D02*
D03*
Y61222D02*
D03*
Y59254D02*
D03*
Y57285D02*
D03*
Y55317D02*
D03*
D21*
X125487Y79805D02*
D03*
X127456D02*
D03*
X129425D02*
D03*
X131393D02*
D03*
X133361D02*
D03*
X135330D02*
D03*
X137299D02*
D03*
X139267D02*
D03*
X141235D02*
D03*
X143204D02*
D03*
X145173D02*
D03*
X147141D02*
D03*
Y52482D02*
D03*
X145173D02*
D03*
X143204D02*
D03*
X141235D02*
D03*
X139267D02*
D03*
X137299D02*
D03*
X135330D02*
D03*
X133361D02*
D03*
X131393D02*
D03*
X129425D02*
D03*
X127456D02*
D03*
D22*
X125487D02*
D03*
D23*
X57481Y14172D02*
D03*
X34646D02*
D03*
Y29921D02*
D03*
X57481D02*
D03*
D25*
X93602Y105513D02*
D03*
X89862D02*
D03*
X93602Y109450D02*
D03*
X89862D02*
D03*
D26*
X186511Y16931D02*
D03*
X193204D02*
D03*
X86117D02*
D03*
X79425D02*
D03*
X193204Y115356D02*
D03*
X186511D02*
D03*
X86117D02*
D03*
X79425D02*
D03*
D27*
X185315Y95474D02*
D03*
X189094D02*
D03*
X185315Y101281D02*
D03*
X189094D02*
D03*
X153558Y46852D02*
D03*
X149779D02*
D03*
X151496Y42913D02*
D03*
X147717D02*
D03*
X141511Y46852D02*
D03*
X145291D02*
D03*
D28*
X175000Y64253D02*
D03*
Y68033D02*
D03*
X157968Y76891D02*
D03*
Y73112D02*
D03*
X154031Y50868D02*
D03*
Y54647D02*
D03*
X30413Y79017D02*
D03*
Y82797D02*
D03*
D29*
X165256Y105118D02*
D03*
X170965D02*
D03*
X165256Y98819D02*
D03*
X170965D02*
D03*
X165256Y51575D02*
D03*
X170965D02*
D03*
X165256Y45276D02*
D03*
X170965D02*
D03*
X165256Y38976D02*
D03*
X170965D02*
D03*
X165256Y32677D02*
D03*
X170965D02*
D03*
D31*
X210236Y98228D02*
X214173D01*
X245276Y47638D02*
X245669D01*
X219291Y94587D02*
Y97441D01*
X218701Y93996D02*
X219291Y94587D01*
X149897Y71065D02*
X153436D01*
X29921Y82384D02*
X30413Y82876D01*
X57479Y29923D02*
X57481Y29921D01*
X50786Y79332D02*
X52361Y77758D01*
X48817Y79332D02*
X50786D01*
X50786Y82482D02*
X52361Y84057D01*
X48817Y82482D02*
X50786D01*
X30020Y83269D02*
Y85236D01*
Y83269D02*
X30413Y82876D01*
X27559Y75295D02*
Y79431D01*
Y82384D02*
X29921D01*
X27559Y79431D02*
X30018D01*
X30412Y79037D01*
X154031Y50789D02*
X157569D01*
X151669Y43309D02*
X155207D01*
D52*
X214173Y98228D02*
D03*
Y102165D02*
D03*
Y106102D02*
D03*
Y110039D02*
D03*
Y113976D02*
D03*
Y117913D02*
D03*
D53*
X254724Y97441D02*
D03*
X250787D02*
D03*
X246850D02*
D03*
X242913D02*
D03*
X238976D02*
D03*
X235039D02*
D03*
X231102D02*
D03*
X227165D02*
D03*
X223228D02*
D03*
X219291D02*
D03*
Y118701D02*
D03*
X223228D02*
D03*
X227165D02*
D03*
X231102D02*
D03*
X235039D02*
D03*
X250787D02*
D03*
X246850D02*
D03*
X242913D02*
D03*
X238976D02*
D03*
D54*
X254724D02*
D03*
D55*
X245669Y45276D02*
D03*
D56*
X136314Y66143D02*
D03*
D57*
X166629Y61222D02*
D03*
Y71065D02*
D03*
D58*
X89764Y105513D02*
Y109450D01*
X85921Y109057D02*
X86314Y109450D01*
X29821Y78446D02*
X30412Y79037D01*
X151669Y43309D02*
X151791Y43187D01*
X136314Y66143D02*
X141235Y71065D01*
X136314Y66143D02*
X141235Y61222D01*
X145173Y52561D02*
X145231Y52503D01*
Y50925D02*
Y52503D01*
Y50925D02*
X147436Y48719D01*
Y43604D02*
Y48719D01*
X50884Y29921D02*
X50886Y29923D01*
X57479D01*
X34646Y29921D02*
X50884D01*
X175000Y68033D02*
Y71263D01*
X176770Y73033D01*
X160822Y67029D02*
X164857Y71065D01*
X166629D01*
X149897Y67029D02*
X160822D01*
X39762Y77758D02*
X41337Y79332D01*
X43306D01*
X39762Y84057D02*
X41337Y82482D01*
X43306D01*
X155413Y80907D02*
X193898D01*
X198031Y76773D01*
X223228Y92521D02*
Y97441D01*
X222046Y91339D02*
X223228Y92521D01*
X196457Y91339D02*
X222046D01*
X94095Y105907D02*
X95369D01*
X93701Y105513D02*
X94095Y105907D01*
X95369D02*
X97732Y108269D01*
X93307Y110238D02*
X93701Y109844D01*
X93307Y110238D02*
Y113387D01*
X208366Y82382D02*
X233169D01*
X199017Y73033D02*
X208366Y82382D01*
X176770Y73033D02*
X199017D01*
X93007Y121261D02*
X98127Y116142D01*
X102756D01*
X107771Y111127D01*
Y70080D02*
Y111127D01*
X195077Y92718D02*
X196457Y91339D01*
X139267Y92718D02*
X195077D01*
X195276Y90158D02*
X225197D01*
X194684Y90750D02*
X195276Y90158D01*
X140251Y90750D02*
X194684D01*
X22047Y79921D02*
X27559Y85433D01*
X144188Y82876D02*
X197835D01*
X143204Y81891D02*
X144188Y82876D01*
X197835D02*
X198031Y82679D01*
X242914Y92126D02*
Y97441D01*
X233169Y82382D02*
X242914Y92126D01*
X235039Y92126D02*
Y97441D01*
X229726Y86813D02*
X235039Y92126D01*
X142220Y86813D02*
X229726D01*
X231102Y92126D02*
Y97441D01*
X227758Y88781D02*
X231102Y92126D01*
X141235Y88781D02*
X227758D01*
X238976Y92126D02*
Y97441D01*
X232283Y85433D02*
X238976Y92126D01*
X196457Y85433D02*
X232283D01*
X225197Y90158D02*
X227165Y92126D01*
X195769Y84746D02*
X196457Y85433D01*
X143106Y84746D02*
X195769D01*
X141235Y82876D02*
X143106Y84746D01*
X227165Y92126D02*
Y97441D01*
X132377Y11025D02*
Y20868D01*
X127456Y25789D02*
X132377Y20868D01*
X127456Y25789D02*
Y52561D01*
X140251Y11025D02*
Y15946D01*
X129425Y26773D02*
X140251Y15946D01*
X129425Y26773D02*
Y52561D01*
X149897Y73033D02*
X152062D01*
X141235Y79726D02*
Y82876D01*
X139267Y83860D02*
X142220Y86813D01*
X139267Y79726D02*
Y83860D01*
X137299Y84844D02*
X141235Y88781D01*
X137299Y79726D02*
Y84844D01*
X135330Y85828D02*
X140251Y90750D01*
X135330Y79726D02*
Y85828D01*
X133361Y86813D02*
X139267Y92718D01*
X133361Y79726D02*
Y86813D01*
X143204Y79726D02*
Y81891D01*
X166629Y61222D02*
X166826Y61025D01*
X149897Y65258D02*
X160822D01*
X164857Y61222D02*
X166629D01*
X160822Y65258D02*
X164857Y61222D01*
X149897Y65159D02*
Y65258D01*
Y67029D02*
Y67128D01*
X120566Y55317D02*
X122732D01*
X116728Y51478D02*
X120566Y55317D01*
X116728Y11124D02*
Y51478D01*
X119582Y57285D02*
X122732D01*
X114661Y52364D02*
X119582Y57285D01*
X114661Y16931D02*
Y52364D01*
X118598Y59254D02*
X122732D01*
X112692Y53348D02*
X118598Y59254D01*
X112692Y22836D02*
Y53348D01*
X117613Y61222D02*
X122732D01*
X110724Y54332D02*
X117613Y61222D01*
X110724Y28742D02*
Y54332D01*
X117613Y75002D02*
X119582Y73033D01*
X117613Y75002D02*
Y106498D01*
X119582Y73033D02*
X122732D01*
X138775Y44490D02*
Y49017D01*
Y44490D02*
X139267Y43998D01*
Y31694D02*
Y43998D01*
Y31694D02*
X148125Y22836D01*
X119582Y100592D02*
X140251Y121261D01*
X119582Y75986D02*
Y100592D01*
Y75986D02*
X120566Y75002D01*
X117613Y106498D02*
X132377Y121261D01*
X115645Y112403D02*
X124503Y121261D01*
X115645Y74017D02*
Y112403D01*
Y74017D02*
X118598Y71065D01*
X113676Y114372D02*
X116629Y117324D01*
X113676Y73033D02*
Y114372D01*
Y73033D02*
X117613Y69096D01*
X108755Y121261D02*
X111708Y118309D01*
Y72049D02*
Y118309D01*
Y72049D02*
X116629Y67128D01*
X100881Y121261D02*
X109739Y112403D01*
Y71065D02*
Y112403D01*
Y71065D02*
X115645Y65159D01*
X107771Y70080D02*
X114661Y63191D01*
X122732D01*
X115645Y65159D02*
X122732D01*
X116629Y67128D02*
X122732D01*
X117613Y69096D02*
X122732D01*
X118598Y71065D02*
X122732D01*
X148125Y22836D02*
X167810D01*
X147141Y20868D02*
X161905D01*
X137299Y30710D02*
X147141Y20868D01*
X137299Y30710D02*
Y52561D01*
X146157Y18899D02*
X155999D01*
X135330Y29726D02*
X146157Y18899D01*
X135330Y29726D02*
Y52561D01*
X145173Y16931D02*
X150094D01*
X133361Y28742D02*
X145173Y16931D01*
X133361Y28742D02*
Y52561D01*
X125487Y15946D02*
Y52561D01*
X124503Y14962D02*
X125487Y15946D01*
X124503Y11025D02*
Y14962D01*
X100881Y11025D02*
X112692Y22836D01*
X93007Y11025D02*
X110724Y28742D01*
X108755Y11025D02*
X114661Y16931D01*
X157968Y115356D02*
X163873Y121261D01*
X153047Y115356D02*
X157968D01*
X127456Y89765D02*
X153047Y115356D01*
X163873Y113387D02*
X171747Y121261D01*
X154031Y113387D02*
X163873D01*
X129425Y88781D02*
X154031Y113387D01*
X169779Y111419D02*
X179621Y121261D01*
X155015Y111419D02*
X169779D01*
X131393Y87797D02*
X155015Y111419D01*
X131393Y79726D02*
Y87797D01*
X129425Y79726D02*
Y88781D01*
X127456Y79726D02*
Y89765D01*
X116629Y117324D02*
Y121261D01*
X150094Y16931D02*
X155999Y11025D01*
X155999Y18899D02*
X163873Y11025D01*
X161905Y20868D02*
X171747Y11025D01*
X167810Y22836D02*
X179621Y11025D01*
X131393Y27757D02*
X148125Y11025D01*
X131393Y27757D02*
Y52561D01*
X116629Y11025D02*
X116728Y11124D01*
X138775Y49017D02*
X139267Y49509D01*
Y52561D01*
X125487Y90750D02*
X155999Y121261D01*
X125487Y79726D02*
Y90750D01*
X120566Y75002D02*
X122732D01*
Y76970D02*
Y95868D01*
X148125Y121261D01*
X141235Y71065D02*
X145173Y75002D01*
X149897Y55317D02*
X153440D01*
X154031Y54726D01*
X153637Y46852D02*
X154031Y47246D01*
X141235Y61222D02*
X149897D01*
X141235Y71065D02*
X149897D01*
X153637Y46852D02*
X153932Y46557D01*
X147141Y50986D02*
Y52561D01*
Y50986D02*
X149011Y49116D01*
Y47541D02*
Y49116D01*
Y47541D02*
X149700Y46852D01*
X207091Y113976D02*
X214173D01*
X207091Y110039D02*
X214173D01*
X207091Y106102D02*
X214173D01*
X238976Y115359D02*
Y118701D01*
X242914Y115359D02*
Y118701D01*
X175000Y62403D02*
Y64175D01*
X173622Y61025D02*
X175000Y62403D01*
X166826Y61025D02*
X173622D01*
X143204Y50198D02*
X144582Y48820D01*
Y47639D02*
Y48820D01*
X143204Y50198D02*
Y52561D01*
X141235Y47049D02*
Y52561D01*
X144582Y47639D02*
X145369Y46852D01*
X152062Y73033D02*
X153248Y74219D01*
Y78742D01*
X155413Y80907D01*
X231102Y115359D02*
Y118701D01*
X227165Y115359D02*
Y118701D01*
X22047Y74114D02*
Y79921D01*
X86314Y109450D02*
X89764D01*
X103543Y101173D02*
Y102756D01*
X103248Y29923D02*
Y100878D01*
X103543Y101173D01*
D59*
X204725Y38976D02*
Y51181D01*
X170965Y38976D02*
X204725D01*
D60*
X93007Y11025D02*
D03*
D61*
X171747D02*
D03*
X163873D02*
D03*
X155999D02*
D03*
X148125D02*
D03*
X140251D02*
D03*
X132377D02*
D03*
X124503D02*
D03*
X116629D02*
D03*
X108755D02*
D03*
X100881D02*
D03*
X179621D02*
D03*
X93007Y121261D02*
D03*
X155999D02*
D03*
X163873D02*
D03*
X171747D02*
D03*
X179621D02*
D03*
X108755D02*
D03*
X116629D02*
D03*
X124503D02*
D03*
X132377D02*
D03*
X140251D02*
D03*
X148125D02*
D03*
X100881D02*
D03*
X286614Y51181D02*
D03*
Y38976D02*
D03*
X204725D02*
D03*
Y51181D02*
D03*
D62*
X134149Y63978D02*
D03*
X138480D02*
D03*
Y68309D02*
D03*
X134149D02*
D03*
X50886Y29923D02*
D03*
X52361Y77758D02*
D03*
Y84057D02*
D03*
X39762Y77758D02*
D03*
Y84057D02*
D03*
X288976Y30316D02*
D03*
X198031Y76773D02*
D03*
X199606Y107482D02*
D03*
X79921Y23230D02*
D03*
X181890Y115356D02*
D03*
X93307Y113387D02*
D03*
X97732Y108269D02*
D03*
X179921Y101183D02*
D03*
X185039Y68506D02*
D03*
X144488Y95669D02*
D03*
X181496Y45277D02*
D03*
Y57482D02*
D03*
Y34253D02*
D03*
Y22836D02*
D03*
X190945Y57482D02*
D03*
Y45277D02*
D03*
Y34253D02*
D03*
Y22836D02*
D03*
X157480Y46063D02*
D03*
Y55512D02*
D03*
X81496Y33858D02*
D03*
Y104724D02*
D03*
Y92913D02*
D03*
X95276Y95276D02*
D03*
X155118Y33858D02*
D03*
X142520D02*
D03*
X220473Y8269D02*
D03*
X5906Y46457D02*
D03*
X84646Y7874D02*
D03*
Y124409D02*
D03*
X45276D02*
D03*
X5906Y14175D02*
D03*
X51181Y14173D02*
D03*
X94488Y27559D02*
D03*
X219291Y101970D02*
D03*
X149700Y102265D02*
D03*
X27559Y85433D02*
D03*
Y75295D02*
D03*
X48032Y43307D02*
D03*
Y60236D02*
D03*
X248819Y89764D02*
D03*
X95276Y69291D02*
D03*
X106693Y32677D02*
D03*
X199606Y102758D02*
D03*
X245669Y40945D02*
D03*
Y49606D02*
D03*
X157968Y69096D02*
D03*
Y63191D02*
D03*
X207091Y113976D02*
D03*
Y110039D02*
D03*
Y106102D02*
D03*
X238976Y115359D02*
D03*
X242914D02*
D03*
X192220Y95479D02*
D03*
X27559Y82384D02*
D03*
Y79431D02*
D03*
X103248Y29923D02*
D03*
X250787Y115359D02*
D03*
X254725D02*
D03*
X223228D02*
D03*
X219291D02*
D03*
X207091Y117913D02*
D03*
X254725Y100887D02*
D03*
X179921Y95277D02*
D03*
X161811Y78545D02*
D03*
X155207Y43309D02*
D03*
X81496Y45669D02*
D03*
Y57480D02*
D03*
Y69291D02*
D03*
Y81102D02*
D03*
X185728Y78840D02*
D03*
X101181Y105907D02*
D03*
X106102Y67128D02*
D03*
X144487Y43505D02*
D03*
X154331Y60238D02*
D03*
X205512Y102758D02*
D03*
X201575Y70866D02*
D03*
X205512Y74803D02*
D03*
X209449Y78740D02*
D03*
X194882Y68506D02*
D03*
X198031Y82679D02*
D03*
X231102Y115359D02*
D03*
X227165D02*
D03*
X22047Y74114D02*
D03*
X31496Y60236D02*
D03*
X153543Y71557D02*
D03*
X245669Y45276D02*
D03*
X192220Y109843D02*
D03*
X85827Y109449D02*
D03*
X103543Y102756D02*
D03*
X190256Y75984D02*
D03*
M02*
