G04*
G04 #@! TF.GenerationSoftware,Altium Limited,Altium Designer,20.0.13 (296)*
G04*
G04 Layer_Color=8388736*
%FSLAX25Y25*%
%MOIN*%
G70*
G01*
G75*
%ADD30C,0.39370*%
%ADD31C,0.00787*%
G04:AMPARAMS|DCode=32|XSize=27.56mil|YSize=35.43mil|CornerRadius=4.33mil|HoleSize=0mil|Usage=FLASHONLY|Rotation=270.000|XOffset=0mil|YOffset=0mil|HoleType=Round|Shape=RoundedRectangle|*
%AMROUNDEDRECTD32*
21,1,0.02756,0.02677,0,0,270.0*
21,1,0.01890,0.03543,0,0,270.0*
1,1,0.00866,-0.01339,-0.00945*
1,1,0.00866,-0.01339,0.00945*
1,1,0.00866,0.01339,0.00945*
1,1,0.00866,0.01339,-0.00945*
%
%ADD32ROUNDEDRECTD32*%
G04:AMPARAMS|DCode=33|XSize=27.56mil|YSize=35.43mil|CornerRadius=4.33mil|HoleSize=0mil|Usage=FLASHONLY|Rotation=0.000|XOffset=0mil|YOffset=0mil|HoleType=Round|Shape=RoundedRectangle|*
%AMROUNDEDRECTD33*
21,1,0.02756,0.02677,0,0,0.0*
21,1,0.01890,0.03543,0,0,0.0*
1,1,0.00866,0.00945,-0.01339*
1,1,0.00866,-0.00945,-0.01339*
1,1,0.00866,-0.00945,0.01339*
1,1,0.00866,0.00945,0.01339*
%
%ADD33ROUNDEDRECTD33*%
G04:AMPARAMS|DCode=34|XSize=27.56mil|YSize=35.43mil|CornerRadius=7.87mil|HoleSize=0mil|Usage=FLASHONLY|Rotation=0.000|XOffset=0mil|YOffset=0mil|HoleType=Round|Shape=RoundedRectangle|*
%AMROUNDEDRECTD34*
21,1,0.02756,0.01968,0,0,0.0*
21,1,0.01181,0.03543,0,0,0.0*
1,1,0.01575,0.00591,-0.00984*
1,1,0.01575,-0.00591,-0.00984*
1,1,0.01575,-0.00591,0.00984*
1,1,0.01575,0.00591,0.00984*
%
%ADD34ROUNDEDRECTD34*%
G04:AMPARAMS|DCode=35|XSize=15.75mil|YSize=23.62mil|CornerRadius=3.15mil|HoleSize=0mil|Usage=FLASHONLY|Rotation=90.000|XOffset=0mil|YOffset=0mil|HoleType=Round|Shape=RoundedRectangle|*
%AMROUNDEDRECTD35*
21,1,0.01575,0.01732,0,0,90.0*
21,1,0.00945,0.02362,0,0,90.0*
1,1,0.00630,0.00866,0.00472*
1,1,0.00630,0.00866,-0.00472*
1,1,0.00630,-0.00866,-0.00472*
1,1,0.00630,-0.00866,0.00472*
%
%ADD35ROUNDEDRECTD35*%
%ADD36R,0.02362X0.01575*%
%ADD37C,0.70866*%
%ADD38R,0.21063X0.21063*%
G04:AMPARAMS|DCode=39|XSize=14.96mil|YSize=33.47mil|CornerRadius=3.86mil|HoleSize=0mil|Usage=FLASHONLY|Rotation=90.000|XOffset=0mil|YOffset=0mil|HoleType=Round|Shape=RoundedRectangle|*
%AMROUNDEDRECTD39*
21,1,0.01496,0.02575,0,0,90.0*
21,1,0.00724,0.03347,0,0,90.0*
1,1,0.00772,0.01287,0.00362*
1,1,0.00772,0.01287,-0.00362*
1,1,0.00772,-0.01287,-0.00362*
1,1,0.00772,-0.01287,0.00362*
%
%ADD39ROUNDEDRECTD39*%
G04:AMPARAMS|DCode=40|XSize=14.96mil|YSize=33.47mil|CornerRadius=3.86mil|HoleSize=0mil|Usage=FLASHONLY|Rotation=180.000|XOffset=0mil|YOffset=0mil|HoleType=Round|Shape=RoundedRectangle|*
%AMROUNDEDRECTD40*
21,1,0.01496,0.02575,0,0,180.0*
21,1,0.00724,0.03347,0,0,180.0*
1,1,0.00772,-0.00362,0.01287*
1,1,0.00772,0.00362,0.01287*
1,1,0.00772,0.00362,-0.01287*
1,1,0.00772,-0.00362,-0.01287*
%
%ADD40ROUNDEDRECTD40*%
G04:AMPARAMS|DCode=41|XSize=14.96mil|YSize=33.47mil|CornerRadius=5.22mil|HoleSize=0mil|Usage=FLASHONLY|Rotation=180.000|XOffset=0mil|YOffset=0mil|HoleType=Round|Shape=RoundedRectangle|*
%AMROUNDEDRECTD41*
21,1,0.01496,0.02303,0,0,180.0*
21,1,0.00453,0.03347,0,0,180.0*
1,1,0.01043,-0.00226,0.01152*
1,1,0.01043,0.00226,0.01152*
1,1,0.01043,0.00226,-0.01152*
1,1,0.01043,-0.00226,-0.01152*
%
%ADD41ROUNDEDRECTD41*%
%ADD42R,0.09449X0.04724*%
%ADD43R,0.08268X0.05118*%
G04:AMPARAMS|DCode=44|XSize=29.53mil|YSize=27.56mil|CornerRadius=5.91mil|HoleSize=0mil|Usage=FLASHONLY|Rotation=90.000|XOffset=0mil|YOffset=0mil|HoleType=Round|Shape=RoundedRectangle|*
%AMROUNDEDRECTD44*
21,1,0.02953,0.01575,0,0,90.0*
21,1,0.01772,0.02756,0,0,90.0*
1,1,0.01181,0.00787,0.00886*
1,1,0.01181,0.00787,-0.00886*
1,1,0.01181,-0.00787,-0.00886*
1,1,0.01181,-0.00787,0.00886*
%
%ADD44ROUNDEDRECTD44*%
G04:AMPARAMS|DCode=45|XSize=62.99mil|YSize=55.12mil|CornerRadius=8.66mil|HoleSize=0mil|Usage=FLASHONLY|Rotation=90.000|XOffset=0mil|YOffset=0mil|HoleType=Round|Shape=RoundedRectangle|*
%AMROUNDEDRECTD45*
21,1,0.06299,0.03780,0,0,90.0*
21,1,0.04567,0.05512,0,0,90.0*
1,1,0.01732,0.01890,0.02284*
1,1,0.01732,0.01890,-0.02284*
1,1,0.01732,-0.01890,-0.02284*
1,1,0.01732,-0.01890,0.02284*
%
%ADD45ROUNDEDRECTD45*%
G04:AMPARAMS|DCode=46|XSize=33.07mil|YSize=31.5mil|CornerRadius=6.3mil|HoleSize=0mil|Usage=FLASHONLY|Rotation=270.000|XOffset=0mil|YOffset=0mil|HoleType=Round|Shape=RoundedRectangle|*
%AMROUNDEDRECTD46*
21,1,0.03307,0.01890,0,0,270.0*
21,1,0.02047,0.03150,0,0,270.0*
1,1,0.01260,-0.00945,-0.01024*
1,1,0.01260,-0.00945,0.01024*
1,1,0.01260,0.00945,0.01024*
1,1,0.01260,0.00945,-0.01024*
%
%ADD46ROUNDEDRECTD46*%
G04:AMPARAMS|DCode=47|XSize=33.07mil|YSize=31.5mil|CornerRadius=6.3mil|HoleSize=0mil|Usage=FLASHONLY|Rotation=0.000|XOffset=0mil|YOffset=0mil|HoleType=Round|Shape=RoundedRectangle|*
%AMROUNDEDRECTD47*
21,1,0.03307,0.01890,0,0,0.0*
21,1,0.02047,0.03150,0,0,0.0*
1,1,0.01260,0.01024,-0.00945*
1,1,0.01260,-0.01024,-0.00945*
1,1,0.01260,-0.01024,0.00945*
1,1,0.01260,0.01024,0.00945*
%
%ADD47ROUNDEDRECTD47*%
G04:AMPARAMS|DCode=48|XSize=45.28mil|YSize=47.24mil|CornerRadius=7.68mil|HoleSize=0mil|Usage=FLASHONLY|Rotation=270.000|XOffset=0mil|YOffset=0mil|HoleType=Round|Shape=RoundedRectangle|*
%AMROUNDEDRECTD48*
21,1,0.04528,0.03189,0,0,270.0*
21,1,0.02992,0.04724,0,0,270.0*
1,1,0.01535,-0.01595,-0.01496*
1,1,0.01535,-0.01595,0.01496*
1,1,0.01535,0.01595,0.01496*
1,1,0.01535,0.01595,-0.01496*
%
%ADD48ROUNDEDRECTD48*%
G04:AMPARAMS|DCode=49|XSize=62.99mil|YSize=62.99mil|CornerRadius=17.72mil|HoleSize=0mil|Usage=FLASHONLY|Rotation=180.000|XOffset=0mil|YOffset=0mil|HoleType=Round|Shape=RoundedRectangle|*
%AMROUNDEDRECTD49*
21,1,0.06299,0.02756,0,0,180.0*
21,1,0.02756,0.06299,0,0,180.0*
1,1,0.03543,-0.01378,0.01378*
1,1,0.03543,0.01378,0.01378*
1,1,0.03543,0.01378,-0.01378*
1,1,0.03543,-0.01378,-0.01378*
%
%ADD49ROUNDEDRECTD49*%
%ADD50C,0.06299*%
%ADD51C,0.09449*%
D30*
X262205Y45276D02*
G03*
X262205Y45276I-16535J0D01*
G01*
D31*
X211221Y120079D02*
Y121457D01*
X215158D01*
X211221Y94685D02*
Y96063D01*
Y94685D02*
X215158D01*
X279331Y120079D02*
Y121457D01*
X275394D02*
X279331D01*
Y94685D02*
Y96063D01*
X275394Y94685D02*
X279331D01*
D32*
X214173Y98228D02*
D03*
Y102165D02*
D03*
Y106102D02*
D03*
Y110039D02*
D03*
Y113976D02*
D03*
Y117913D02*
D03*
D33*
X254724Y97441D02*
D03*
X250787D02*
D03*
X246850D02*
D03*
X242913D02*
D03*
X238976D02*
D03*
X235039D02*
D03*
X231102D02*
D03*
X227165D02*
D03*
X223228D02*
D03*
X219291D02*
D03*
Y118701D02*
D03*
X223228D02*
D03*
X227165D02*
D03*
X231102D02*
D03*
X235039D02*
D03*
X250787D02*
D03*
X246850D02*
D03*
X242913D02*
D03*
X238976D02*
D03*
D34*
X254724D02*
D03*
D35*
X43306Y82482D02*
D03*
D36*
Y79332D02*
D03*
X48817Y82482D02*
D03*
Y79332D02*
D03*
D37*
X245669Y45276D02*
D03*
D38*
X136314Y66143D02*
D03*
D39*
X122653Y55317D02*
D03*
Y57285D02*
D03*
Y59254D02*
D03*
Y61222D02*
D03*
Y63191D02*
D03*
Y65159D02*
D03*
Y67128D02*
D03*
Y69096D02*
D03*
Y71065D02*
D03*
Y73033D02*
D03*
Y75002D02*
D03*
Y76970D02*
D03*
X149976D02*
D03*
Y75002D02*
D03*
Y73033D02*
D03*
Y71065D02*
D03*
Y69096D02*
D03*
Y67128D02*
D03*
Y65159D02*
D03*
Y63191D02*
D03*
Y61222D02*
D03*
Y59254D02*
D03*
Y57285D02*
D03*
Y55317D02*
D03*
D40*
X125487Y79805D02*
D03*
X127456D02*
D03*
X129425D02*
D03*
X131393D02*
D03*
X133361D02*
D03*
X135330D02*
D03*
X137299D02*
D03*
X139267D02*
D03*
X141235D02*
D03*
X143204D02*
D03*
X145173D02*
D03*
X147141D02*
D03*
Y52482D02*
D03*
X145173D02*
D03*
X143204D02*
D03*
X141235D02*
D03*
X139267D02*
D03*
X137299D02*
D03*
X135330D02*
D03*
X133361D02*
D03*
X131393D02*
D03*
X129425D02*
D03*
X127456D02*
D03*
D41*
X125487D02*
D03*
D42*
X57481Y14172D02*
D03*
X34646D02*
D03*
Y29921D02*
D03*
X57481D02*
D03*
D43*
X166629Y61222D02*
D03*
Y71065D02*
D03*
D44*
X93602Y105513D02*
D03*
X89862D02*
D03*
X93602Y109450D02*
D03*
X89862D02*
D03*
D45*
X186511Y16931D02*
D03*
X193204D02*
D03*
X86117D02*
D03*
X79425D02*
D03*
X193204Y115356D02*
D03*
X186511D02*
D03*
X86117D02*
D03*
X79425D02*
D03*
D46*
X185315Y95474D02*
D03*
X189094D02*
D03*
X185315Y101281D02*
D03*
X189094D02*
D03*
X153558Y46852D02*
D03*
X149779D02*
D03*
X151496Y42913D02*
D03*
X147717D02*
D03*
X141511Y46852D02*
D03*
X145291D02*
D03*
D47*
X175000Y64253D02*
D03*
Y68033D02*
D03*
X157968Y76891D02*
D03*
Y73112D02*
D03*
X154031Y50868D02*
D03*
Y54647D02*
D03*
X30413Y79017D02*
D03*
Y82797D02*
D03*
D48*
X165256Y105118D02*
D03*
X170965D02*
D03*
X165256Y98819D02*
D03*
X170965D02*
D03*
X165256Y51575D02*
D03*
X170965D02*
D03*
X165256Y45276D02*
D03*
X170965D02*
D03*
X165256Y38976D02*
D03*
X170965D02*
D03*
X165256Y32677D02*
D03*
X170965D02*
D03*
D49*
X93007Y11025D02*
D03*
D50*
X171747D02*
D03*
X163873D02*
D03*
X155999D02*
D03*
X148125D02*
D03*
X140251D02*
D03*
X132377D02*
D03*
X124503D02*
D03*
X116629D02*
D03*
X108755D02*
D03*
X100881D02*
D03*
X179621D02*
D03*
X93007Y121261D02*
D03*
X155999D02*
D03*
X163873D02*
D03*
X171747D02*
D03*
X179621D02*
D03*
X108755D02*
D03*
X116629D02*
D03*
X124503D02*
D03*
X132377D02*
D03*
X140251D02*
D03*
X148125D02*
D03*
X100881D02*
D03*
X286614Y51181D02*
D03*
Y38976D02*
D03*
X204725D02*
D03*
Y51181D02*
D03*
D51*
X285433Y122047D02*
D03*
X7874Y122047D02*
D03*
M02*
